<svg height="35" viewBox="0 0 365 35" width="365" xmlns="http://www.w3.org/2000/svg"><g fill="#fff" transform="translate(0 -3)"><path d="m19.5572266 37h-19.44658207v-33.76591797h19.44658207v5.8663086h-12.2869141v7.41372067h11.432373v5.8663086h-11.432373v8.7070801h12.2869141zm21.3404296 0-8.1296875-26.4907715h-.2078613l.2121248 4.1213076c.1511296 3.1481279.2266936 5.3695764.2266936 6.6643858v15.7050781h-6.3975098v-33.76591797h9.7463867l7.9911133 25.82099607h.1385742l8.4761231-25.82099607h9.7463867v33.76591797h-6.6746582v-15.9822266c0-.6466829.008484-1.378198.0254524-2.1945617l.0518026-1.7427919c.0501175-1.3752675.139844-3.5502584.2691805-6.5249999h-.2078613l-8.7070801 26.4445801zm30.3015625 0v-33.76591797h7.159668v33.76591797zm28.6848633 0h-7.1596679v-27.80722656h-9.1689942v-5.95869141h25.4976561v5.95869141h-9.168994z"/><path d="m130.276953 17h-7.44165v-13.34931641h7.44165v1.37875977h-5.889404v4.30063476h5.533301v1.36962888h-5.533301v4.9124024h5.889404zm12.249658 0-1.661816-4.2458496h-5.350684l-1.643554 4.2458496h-1.570508l5.277637-13.40410156h1.305712l5.250245 13.40410156zm-6.464648-5.6428711h4.318896l-1.552246-4.13627929c-.20088-.52350522-.407844-1.16570258-.620898-1.92661133-.13392.58437792-.325666 1.22657528-.575244 1.92661133zm12.359228.0913086v5.5515625h-1.552246v-13.34931641h3.661475c1.637476 0 2.847302.31348971 3.629517.94047852.782214.62698881 1.173315 1.57050151 1.173315 2.83056641 0 1.7653083-.894815 2.95839528-2.684473 3.57929688l3.624951 5.9989746h-1.835302l-3.232324-5.5515625zm0-1.3331055h2.127491c1.095708 0 1.899216-.21761661 2.410547-.65285641.51133-.43523981.766992-1.08808973.766992-1.95856934 0-.88265415-.260227-1.51876433-.780689-1.90834961-.520461-.38958528-1.355927-.584375-2.506421-.584375h-2.01792zm15.016309 6.884668h-1.552246v-11.97055664h-4.227588v-1.37875977h10.007422v1.37875977h-4.227588zm17.271631 0h-1.552246v-6.2820312h-7.030762v6.2820312h-1.552246v-13.34931641h1.552246v5.67939453h7.030762v-5.67939453h1.552246zm17.852051-3.5519043c0 1.1748431-.426103 2.0909635-1.278321 2.7483887-.852217.6574251-2.008781.9861328-3.469726.9861328-1.58269 0-2.800126-.2039205-3.652344-.6117676v-1.4974609c.547854.2313162 1.144398.4139316 1.789648.5478515.645251.13392 1.284405.2008789 1.917481.2008789 1.034836 0 1.813995-.1963115 2.3375-.5889404s.785254-.9389532.785254-1.6389892c0-.4626326-.09283-.8415594-.278491-1.136792-.185662-.2952326-.496108-.5676339-.931348-.817212-.43524-.249578-1.097221-.5326318-1.985962-.8491699-1.241803-.4443707-2.129009-.97091164-2.661645-1.57963865-.532637-.608727-.798951-1.40310382-.798951-2.38315429 0-1.02874864.386536-1.84747417 1.159619-2.45620118.773084-.608727 1.79573-.91308593 3.067969-.91308593 1.327025 0 2.547504.24348715 3.661475.73046875l-.483936 1.35136718c-1.101796-.46263252-2.173139-.69394531-3.214062-.69394531-.821782 0-1.463979.17652818-1.926612.52958985-.462632.35306166-.693945.84307954-.693945 1.47006836 0 .46263252.085221.84155939.255664 1.13679199.170444.29523259.458063.56611205.862866.81264648.314848.19174901.759494.39914584 1.33395.62219434l.52418.19501758c1.400072.49915613 2.363368 1.03482783 2.889917 1.60703123s.78982 1.3148392.78982 2.2279297zm13.710595-9.79741211v8.63779301c0 1.5218175-.459582 2.7179481-1.378759 3.5884277-.919178.8704796-2.182268 1.3057129-3.789307 1.3057129s-2.850346-.4382769-3.729956-1.3148438c-.879611-.8765668-1.319409-2.0818282-1.319409-3.6158203v-8.60126951h1.552246v8.71083981c0 1.1139705.304359 1.9692191.913086 2.5657715.608727.5965525 1.503542.8948242 2.684472.8948242 1.126145 0 1.993568-.2997935 2.602295-.8993896s.913086-1.4594101.913086-2.5794678v-8.69257811zm5.985889 7.79775391v5.5515625h-1.552246v-13.34931641h3.661475c1.637475 0 2.847302.31348971 3.629516.94047852s1.173316 1.57050151 1.173316 2.83056641c0 1.7653083-.894816 2.95839528-2.684473 3.57929688l3.624951 5.9989746h-1.835303l-3.232324-5.5515625zm0-1.3331055h2.12749c1.095709 0 1.899216-.21761661 2.410547-.65285641.511331-.43523981.766992-1.08808973.766992-1.95856934 0-.88265415-.260227-1.51876433-.780688-1.90834961-.520462-.38958528-1.355927-.584375-2.506421-.584375h-2.01792zm12.459668 6.884668h-1.552246v-13.34931641h7.44165v1.37875977h-5.889404v4.88500977h5.533301v1.37875977h-5.533301zm17.015967 0-1.661817-4.2458496h-5.350683l-1.643555 4.2458496h-1.570508l5.277637-13.40410156h1.305713l5.250244 13.40410156zm-6.464649-5.6428711h4.318897l-1.552246-4.13627929c-.20088-.52350522-.407844-1.16570258-.620899-1.92661133-.13392.58437792-.325666 1.22657528-.575244 1.92661133zm16.148536-6.51030273c-1.467033 0-2.625118.48849609-3.474292 1.46550293-.849175.97700684-1.273755 2.31466436-1.273755 4.0130127 0 1.7470465.409362 3.0968784 1.2281 4.0495361.818738.9526578 1.985955 1.4289795 3.501685 1.4289795.931352 0 1.993565-.1673974 3.18667-.5021972v1.360498c-.925265.3469744-2.066611.520459-3.424073.520459-1.966188 0-3.483417-.5965435-4.551733-1.7896484-1.068316-1.193105-1.602466-2.8883842-1.602466-5.0858887 0-1.37572305.257184-2.58098443.771558-3.61582033.514374-1.03483591 1.25701-1.83225632 2.22793-2.39228516.970919-.56002884 2.113787-.84003906 3.428637-.84003906 1.400072 0 2.623595.2556615 3.670606.76699218l-.657422 1.33310547c-1.010487-.47480706-2.020959-.71220703-3.031445-.71220703zm14.422802 12.15317383h-7.44165v-13.34931641h7.44165v1.37875977h-5.889404v4.30063476h5.533301v1.36962888h-5.533301v4.9124024h5.889404zm15.523682 0-4.528906-11.83359375h-.073047c.085222.93743958.127832 2.05139329.127832 3.34189453v8.49169922h-1.433545v-13.34931641h2.3375l4.227588 11.01181641h.073047l4.264111-11.01181641h2.319238v13.34931641h-1.552246v-8.60126953c0-.98613774.04261-2.0574812.127832-3.2140625h-.073047l-4.565429 11.81533203zm11.875293 0v-13.34931641h1.552246v13.34931641zm16.541162 0h-1.771387l-7.295556-11.20356445h-.073047c.097396 1.31485032.146093 2.52011171.146093 3.61582031v7.58774414h-1.433544v-13.34931641h1.753125l7.277294 11.15791021h.073047l-.082177-1.5842042-.037985-.9481498c-.012418-.4130794-.014974-.7346664-.00767-.9647652v-7.66079101h1.451807zm12.012256 0h-7.441651v-13.34931641h7.441651v1.37875977h-5.889404v4.30063476h5.5333v1.36962888h-5.5333v4.9124024h5.889404zm5.410644-5.5515625v5.5515625h-1.552246v-13.34931641h3.661475c1.637475 0 2.847302.31348971 3.629516.94047852.782215.62698881 1.173316 1.57050151 1.173316 2.83056641 0 1.7653083-.894815 2.95839528-2.684473 3.57929688l3.624951 5.9989746h-1.835302l-3.232325-5.5515625zm0-1.3331055h2.127491c1.095708 0 1.899216-.21761661 2.410546-.65285641.511331-.43523981.766993-1.08808973.766993-1.95856934 0-.88265415-.260227-1.51876433-.780689-1.90834961-.520461-.38958528-1.355927-.584375-2.506421-.584375h-2.01792zm19.298682 6.884668-1.661816-4.2458496h-5.350684l-1.643555 4.2458496h-1.570508l5.277637-13.40410156h1.305713l5.250244 13.40410156zm-6.464648-5.6428711h4.318896l-1.552246-4.13627929c-.20088-.52350522-.407844-1.16570258-.620898-1.92661133-.13392.58437792-.325667 1.22657528-.575245 1.92661133zm10.806982 5.6428711v-13.34931641h1.552246v11.94316411h5.889404v1.4061523zm-223.820605 13.4521484c0 2.1211044-.575678 3.7426702-1.727051 4.8647461-1.151373 1.122076-2.808095 1.6831055-4.970215 1.6831055h-3.55957v-12.8496094h3.9375c1.998056 0 3.550775.5537054 4.658203 1.6611328 1.107427 1.1074274 1.661133 2.654287 1.661133 4.640625zm-1.582032.0527344c0-1.6757896-.420406-2.9384723-1.26123-3.7880859-.840825-.8496136-2.090324-1.2744141-3.748535-1.2744141h-2.170899v10.265625h1.819336c1.781259 0 3.120113-.4379839 4.016602-1.3139648.896489-.875981 1.344726-2.1723547 1.344726-3.8891602zm13.750391-6.3544922v8.3144532c0 1.464851-.442379 2.6162067-1.327149 3.4541015s-2.100578 1.2568359-3.647461 1.2568359c-1.546882 0-2.743648-.4218707-3.590332-1.265625-.846683-.8437542-1.270019-2.0038988-1.270019-3.4804687v-8.2792969h1.494141v8.3847656c0 1.072271.292965 1.895505.878906 2.4697266.58594.5742216 1.44726.8613281 2.583984.8613281 1.08399 0 1.918943-.2885713 2.504883-.8657226s.878906-1.4047798.878906-2.4829102v-8.3671875zm10.252344 9.4306641c0 1.130865-.410153 2.0126921-1.230469 2.6455078-.820317.6328157-1.933587.9492187-3.339844.9492187-1.523445 0-2.695308-.196287-3.515625-.5888671v-1.4414063c.527347.2226574 1.10156.3984369 1.722656.5273438.621097.1289069 1.236325.1933593 1.845703.1933593.996099 0 1.746092-.1889629 2.25-.5668945.503909-.3779316.75586-.9038052.75586-1.5776367 0-.4453147-.089355-.8100572-.268067-1.0942383-.178711-.2841811-.477536-.5463855-.896484-.7866211-.418947-.2402356-1.056148-.5126938-1.911621-.8173828-1.195318-.4277365-2.049314-.9345674-2.562012-1.5205078s-.769043-1.3505812-.769043-2.2939453c0-.9902394.372067-1.7783174 1.116211-2.3642578.744145-.5859405 1.72851-.8789063 2.953125-.8789063 1.27735 0 2.452143.2343727 3.524414.703125l-.46582 1.3007813c-1.060552-.4453148-2.091792-.6679688-3.09375-.6679688-.79102 0-1.409177.1699202-1.854492.5097656-.445315.3398455-.667969.8115205-.667969 1.4150391 0 .4453147.08203.8100572.246094 1.0942383.164063.2841811.440916.5449207.830566.7822265.346356.2109386.8559.4415501 1.528645.69184l.259929.0947811c1.347663.4804712 2.2749.996091 2.781739 1.546875.506838.550784.760254 1.2656206.760254 2.1445313zm6.183007 3.4189453h-1.49414v-11.5224609h-4.069336v-1.3271485h9.632812v1.3271485h-4.069336zm17.129688-3.4189453c0 1.130865-.410152 2.0126921-1.230469 2.6455078-.820316.6328157-1.933587.9492187-3.339844.9492187-1.523445 0-2.695308-.196287-3.515625-.5888671v-1.4414063c.527347.2226574 1.10156.3984369 1.722657.5273438s1.236325.1933593 1.845703.1933593c.996099 0 1.746091-.1889629 2.25-.5668945s.755859-.9038052.755859-1.5776367c0-.4453147-.089354-.8100572-.268066-1.0942383s-.477537-.5463855-.896485-.7866211c-.418947-.2402356-1.056148-.5126938-1.911621-.8173828-1.195318-.4277365-2.049314-.9345674-2.562011-1.5205078-.512698-.5859404-.769043-1.3505812-.769043-2.2939453 0-.9902394.372066-1.7783174 1.116211-2.3642578.744144-.5859405 1.728509-.8789063 2.953125-.8789063 1.27735 0 2.452143.2343727 3.524414.703125l-.465821 1.3007813c-1.060552-.4453148-2.091792-.6679688-3.09375-.6679688-.791019 0-1.409177.1699202-1.854492.5097656-.445315.3398455-.667969.8115205-.667969 1.4150391 0 .4453147.082031.8100572.246094 1.0942383s.440916.5449207.830567.7822265c.346355.2109386.8559.4415501 1.528644.69184l.25993.0947811c1.347663.4804712 2.2749.996091 2.781738 1.546875.506839.550784.760254 1.2656206.760254 2.1445313zm13.38125-3.0234375c0 2.0566509-.520014 3.6738222-1.560059 4.8515625-1.040044 1.1777403-2.48583 1.7666015-4.337402 1.7666015-1.892588 0-3.353022-.5786074-4.381348-1.7358398-1.028325-1.1572323-1.54248-2.7905168-1.54248-4.8999023 0-2.0918074.51562-3.7133732 1.546875-4.8647461 1.031255-1.151373 2.496084-1.7270508 4.394531-1.7270508 1.845712 0 3.287104.5859316 4.324219 1.7578125 1.037114 1.1718808 1.555664 2.7890522 1.555664 4.8515625zm-10.239258 0c0 1.7402431.370602 3.0600541 1.111817 3.9594726.741214.8994186 1.817864 1.3491211 3.22998 1.3491211 1.423835 0 2.49902-.4482377 3.225586-1.3447265.726566-.8964889 1.089844-2.2177647 1.089844-3.9638672 0-1.7285243-.361813-3.0395463-1.08545-3.9331055-.723636-.8935591-1.794426-1.340332-3.212402-1.340332-1.423835 0-2.506344.4497025-3.247558 1.3491211-.741215.8994185-1.111817 2.2075109-1.111817 3.9243164zm22.407617-6.4072266v8.3144532c0 1.464851-.442378 2.6162067-1.327148 3.4541015s-2.100578 1.2568359-3.647461 1.2568359-2.743648-.4218707-3.590332-1.265625c-.846684-.8437542-1.27002-2.0038988-1.27002-3.4804687v-8.2792969h1.494141v8.3847656c0 1.072271.292966 1.895505.878906 2.4697266.585941.5742216 1.44726.8613281 2.583985.8613281 1.083989 0 1.918942-.2885713 2.504882-.8657226.585941-.5771513.878907-1.4047798.878907-2.4829102v-8.3671875zm4.495508 7.5058594v5.34375h-1.49414v-12.8496094h3.524414c1.576179 0 2.740718.3017548 3.493652.9052735.752933.6035186 1.129394 1.5117126 1.129394 2.7246093 0 1.6992273-.861319 2.8476533-2.583984 3.4453125l3.489258 5.7744141h-1.766602l-3.111328-5.34375zm0-1.2832031h2.047852c1.054692 0 1.828122-.2094706 2.320312-.628418s.738281-1.0473591.738281-1.8852539c0-.8496136-.250485-1.4619122-.751464-1.8369141-.500979-.3750018-1.305171-.5625-2.412598-.5625h-1.942383zm14.734766-5.0712891c-1.412117 0-2.526852.4702102-3.344239 1.4106445-.817386.9404344-1.226074 2.2280192-1.226074 3.862793 0 1.681649.394039 2.9809525 1.182129 3.8979492.78809.9169968 1.911614 1.3754883 3.370606 1.3754883.896488 0 1.918939-.1611312 3.067382-.4833984v1.3095703c-.890629.333986-1.989251.5009765-3.295898.5009765-1.892588 0-3.353022-.574213-4.381348-1.7226562-1.028325-1.1484432-1.54248-2.7802629-1.54248-4.8955078 0-1.3242254.247556-2.48437.742676-3.4804688.495119-.9960987 1.209956-1.7636691 2.144531-2.3027343s2.034662-.8085938 3.300293-.8085938c1.347663 0 2.525385.2460913 3.533203.7382813l-.632813 1.2832031c-.972661-.4570335-1.945307-.6855469-2.917968-.6855469zm12.616601 11.6982422h-7.163086v-12.8496094h7.163086v1.3271485h-5.668945v4.1396484h5.326172v1.3183594h-5.326172v4.7285156h5.668945zm6.723438 0v-12.8496094h1.49414v12.8496094zm14.655664 0h-1.705078l-7.022461-10.7841797h-.070313c.093751 1.2656313.140625 2.425776.140625 3.4804688v7.3037109h-1.379883v-12.8496094h1.6875l7.004883 10.7402344h.070313l-.051087-.9467451-.051452-1.1141831c-.022787-.5830806-.029623-1.0181719-.020508-1.3052827v-7.3740235h1.397461zm10.47207-12.8496094h1.608399l-4.631836 12.8496094h-1.476563l-4.605469-12.8496094h1.582032l2.953125 8.3144532c.339845.9550829.609374 1.8837845.808593 2.7861328.210939-.9492235.486327-1.8955031.826172-2.8388672zm10.138086 12.8496094h-7.163086v-12.8496094h7.163086v1.3271485h-5.668945v4.1396484h5.326172v1.3183594h-5.326172v4.7285156h5.668945zm9.698633-3.4189453c0 1.130865-.410152 2.0126921-1.230469 2.6455078-.820316.6328157-1.933587.9492187-3.339844.9492187-1.523445 0-2.695308-.196287-3.515625-.5888671v-1.4414063c.527347.2226574 1.10156.3984369 1.722657.5273438s1.236325.1933593 1.845703.1933593c.996099 0 1.746091-.1889629 2.25-.5668945s.755859-.9038052.755859-1.5776367c0-.4453147-.089354-.8100572-.268066-1.0942383s-.477537-.5463855-.896485-.7866211c-.418947-.2402356-1.056148-.5126938-1.911621-.8173828-1.195318-.4277365-2.049314-.9345674-2.562011-1.5205078-.512698-.5859404-.769043-1.3505812-.769043-2.2939453 0-.9902394.372066-1.7783174 1.116211-2.3642578.744144-.5859405 1.728509-.8789063 2.953125-.8789063 1.27735 0 2.452143.2343727 3.524414.703125l-.465821 1.3007813c-1.060552-.4453148-2.091792-.6679688-3.09375-.6679688-.791019 0-1.409177.1699202-1.854492.5097656-.445315.3398455-.667969.8115205-.667969 1.4150391 0 .4453147.082031.8100572.246094 1.0942383s.440916.5449207.830567.7822265c.346355.2109386.8559.4415501 1.528644.69184l.25993.0947811c1.347663.4804712 2.2749.996091 2.781738 1.546875.506839.550784.760254 1.2656206.760254 2.1445313zm6.183008 3.4189453h-1.494141v-11.5224609h-4.069336v-1.3271485h9.632813v1.3271485h-4.069336zm5.602929 0v-12.8496094h1.494141v12.8496094zm10.269922-6.7324219h4.368164v6.2490235c-.679691.2167979-1.37109.3808588-2.074218.4921875-.703129.1113286-1.517574.1669921-2.44336.1669921-1.945322 0-3.459955-.5786074-4.543945-1.7358398-1.08399-1.1572323-1.625977-2.7787982-1.625977-4.8647461 0-1.3359442.268064-2.5063426.8042-3.5112305.536135-1.0048878 1.3081-1.7724582 2.315918-2.3027343 1.007817-.5302761 2.188469-.7954102 3.541992-.7954102 1.3711 0 2.648431.2519506 3.832031.7558594l-.580078 1.3183594c-1.160162-.49219-2.276362-.7382813-3.348633-.7382813-1.564461 0-2.786128.4658157-3.665039 1.397461-.878911.9316452-1.318359 2.2236245-1.318359 3.8759765 0 1.7343837.423335 3.0498002 1.270019 3.9462891.846684.8964888 2.090324 1.3447265 3.730957 1.3447265.89063 0 1.760738-.102538 2.610352-.3076171v-3.9550782h-2.874024zm15.130274 6.7324219-1.59961-4.0869141h-5.15039l-1.582032 4.0869141h-1.511718l5.080078-12.9023438h1.256836l5.053711 12.9023438zm-6.222657-5.4316406h4.157227l-1.494141-3.9814453c-.19336-.5039088-.392577-1.1220667-.597656-1.8544922-.128907.5625028-.313475 1.1806607-.553711 1.8544922zm11.834375 5.4316406h-1.49414v-11.5224609h-4.069336v-1.3271485h9.632812v1.3271485h-4.069336zm5.60293 0v-12.8496094h1.494141v12.8496094zm15.771875-6.4423828c0 2.0566509-.520014 3.6738222-1.560058 4.8515625-1.040045 1.1777403-2.485831 1.7666015-4.337403 1.7666015-1.892587 0-3.353022-.5786074-4.381347-1.7358398-1.028326-1.1572323-1.542481-2.7905168-1.542481-4.8999023 0-2.0918074.51562-3.7133732 1.546875-4.8647461 1.031255-1.151373 2.496084-1.7270508 4.394531-1.7270508 1.845713 0 3.287105.5859316 4.324219 1.7578125 1.037115 1.1718808 1.555664 2.7890522 1.555664 4.8515625zm-10.239258 0c0 1.7402431.370602 3.0600541 1.111817 3.9594726.741214.8994186 1.817864 1.3491211 3.22998 1.3491211 1.423835 0 2.49902-.4482377 3.225586-1.3447265.726566-.8964889 1.089844-2.2177647 1.089844-3.9638672 0-1.7285243-.361813-3.0395463-1.085449-3.9331055-.723637-.8935591-1.794427-1.340332-3.212403-1.340332-1.423835 0-2.506344.4497025-3.247558 1.3491211-.741215.8994185-1.111817 2.2075109-1.111817 3.9243164zm22.741602 6.4423828h-1.705078l-7.022461-10.7841797h-.070313c.093751 1.2656313.140625 2.425776.140625 3.4804688v7.3037109h-1.379882v-12.8496094h1.6875l7.004882 10.7402344h.070313l-.079102-1.5249023c-.041016-.8584028-.055664-1.4721662-.043945-1.8413086v-7.3740235h1.397461z"/></g></svg>